<svg xmlns="http://www.w3.org/2000/svg" viewBox="0 0 332.04 380.13"><title>runn</title><g id="Capa_3" data-name="Capa 3"><path d="M189.75,329.61,168.43,112.33V93.92c0-32.17,23.95-58.24,53.49-58.24H391c29.55,0,53.5,26.07,53.5,58.24V357.57c0,32.16-23.95,58.24-53.5,58.24h-169c-29.54,0-53.49-26.08-53.49-58.24v-20.5a6.59,6.59,0,0,1,5.89-6.79c3.29-.21,6.4-.36,9-.46,3.54-.15,6.47,2.94,6.47,6.79v21c0,19.34,14.4,35,32.17,35H391c17.77,0,32.18-15.68,32.18-35V93.92c0-19.34-14.41-35-32.18-35h-169c-17.77,0-32.17,15.69-32.17,35v18.59a6.11,6.11,0,0,1-6,6.37l-9.61-.18A6.14,6.14,0,0,1,168.43,112.33Z" transform="translate(-112.42 -35.68)"/></g><g id="Capa_2" data-name="Capa 2"><path d="M120.21,127H116v4.5l2.09,2.25L116,137.89l2.09,1.93s-.81,6.43,0,9.64c0,0-1.77,5.15-5.31,6.75,0,0-1.61,3.22,1.61,6.43l1.89,1.61V179s3.25,3.85,12.89,0l6.75,1.71s-1,8.57,0,9.54c0,0,8.36,2.89,14.79,4.5,0,0,0,16.39,32.46,30.85,0,0,9.47,5.47,7.79,13.82,0,0,17.93,4.65,17.61,8.11s-4.18,7.32-23.15,19.22c0,0-10.6,13.5-12.85,20.25,0,0-2.25,15.75-.65,19,0,0,3.54,6.75,9.65,6.75,0,0,20.25.64,23.78,2.25,0,0,11.9-3.21,13.5-10.29,0,0,17.68-1.92,19.93-4.17s3.22-6.29,1.29-8c0,0,16.07-17.11,32.78-4.25,0,0,8,8.68,11.9,8.68l1.92-1.93s34.72,24.75,36,23.47c0,0,10.93,7.07,11.9,12.21,0,0,1.93,4.5,7.07,0,0,0,21.21,5.14,25.71,20.89,0,0,3.54,7.72-3.21,13.18,0,0-4.18,8,0,9.32,0,0,10,5.79,17-1.6l2.9-36.65s-16.07-1.28-29.25-19.6v-5.47l-34.07-28.93s-.33,1.29-2.25,0-22.18-19.6-22.18-19.6,0-3.54-2.9-4.83-11.25-6.92-11.89-8-5.78-9.39-8.36-9.39c0,0-2.57-7.4-4.82-9,0,0,20.25-1.29,26.68-5.47,0,0,3.86-10.93-1.61-12.53,0,0-23.14-9.32-37.28,2.89l-3.54-.32-10-8s2.57-3.53.32-6.1-5.14-5.47-5.14-5.47,30.21,2.25,33.1,4.18h2.25s9.33,6.11,11.25,5.46,8-4.82,9.33-7.07,4.82-16.07,1.92-17-10.28-.65-10.28-.65l.64-11.89s-1-1-5.14-1a21.59,21.59,0,0,0-6.11.64l-1.93-3.86s-58.82,0-65.25-1.93-39.21,1.93-44,6.11l-4.18-1.93s24.43-14.46,58.5-7.39c0,0,7.71-2.25,8-3.54s-15.75-3.53-19.28-2.89,6.11-6.75,13.18-5.78c0,0,5.46-6.43,1.28-7.08,0,0-47.25,14.47-48.85,14.79s-2.9-6.75-2.9-6.75l-3.85.32,4.5-2.57-.33-6.11L161,138.86s6.42-8,5.14-10.29-24.75.64-24.75.64l1.28-10.6L130.18,127l-3.54-6.42Z" transform="translate(-112.42 -35.68)"/></g></svg>
