<svg id="Capa_1" data-name="Capa 1" xmlns="http://www.w3.org/2000/svg" viewBox="0 0 974.25 339.5"><defs><style>.cls-1{fill:#424242;}.cls-1,.cls-2,.cls-3,.cls-5,.cls-6,.cls-7{stroke:#000;stroke-miterlimit:10;}.cls-2{fill:#c0ac94;}.cls-3{fill:#b05961;stroke-width:2px;}.cls-4{fill:#4f6d63;}.cls-5{fill:#b69760;}.cls-6{fill:#b89456;}.cls-7{fill:#a68b80;}</style></defs><title>papel higienico pri largo </title><path class="cls-1" d="M950,548.78s.5-5.5.5-10.5c2-3,33.76-8.94,55.13-.22l.37,10.72S979,563.78,950,548.78Z" transform="translate(-53.8 -216.44)"/><path class="cls-2" d="M946.89,225.22H876.45c-139.42,0-676.84,0-816.25-.08-4.37,0-5.91.79-5.9,5.61q.24,143.65,0,287.31c0,4.52,1.07,5.75,5.68,5.74,154.74-.12,707.48-.13,862.23,0,5,0,7-.94,6.61-6.39a166.72,166.72,0,0,1,0-21c.21-4.26-.85-5.59-5.4-5.56-35,.21-69.95.11-104.93.11-104.44,0-606.87,0-711.31.13-5.16,0-5.48-2.12-5.48-6.16q.14-110.43,0-220.86c0-5.09,1.33-6.29,6.34-6.29,137.42.15,672.84.12,810.26.12,10.49,0,10.49,0,10.47-10.73a85.75,85.75,0,0,0-.07-9.49c-.55-4.7,1.77-7.11,5.74-8.71S942.66,226.64,946.89,225.22Z" transform="translate(-53.8 -216.44)"/><path class="cls-3" d="M946.5,225.5s70-6,80,8c0,9.82.72,243.71.5,293.5,0,6,.4,8.71-1.8,8.86-1.11.07-19.2,11.14-45.2,11.14-14.45,0-49-5.55-51.5-13.5-1.51-41.36.13-298.19.13-298.19S925.5,229.5,946.5,225.5Z" transform="translate(-53.8 -216.44)"/><path class="cls-4" d="M1026,503.28a4.22,4.22,0,0,1-.59.15c-1.07,3.38-1.87,4.11-7,5.43-19.07,4.93-38.5,4.94-58,3.57-8.12-.57-16.21-1.52-23.93-4.39-2.64-1-8.06-.94-8.55-4,.63-4.63,1-236,1-229,2,0,11.85,6,15.28,6.68,16.25,3.4,32.71,3.67,49.13,2.58,10.85-.71,22.65-5.47,33.59-11.26C1026,278.43,1029.31,502.23,1026,503.28Z" transform="translate(-53.8 -216.44)"/><path class="cls-5" d="M928,502.34c.51,3.11,2.64,4.43,5.38,5.42,8,2.87,16.45,3.82,24.89,4.39,20.24,1.37,40.44,1.36,60.29-3.57,5.59-1.4,6.21-2.13,7.44-6A195.18,195.18,0,0,1,928,502.34Z" transform="translate(-53.8 -216.44)"/><path class="cls-6" d="M1027,270c-10.94,6.19-23.74,8.88-34.59,9.64-16.42,1.16-32.88.88-49.13-2.76-3.43-.76-13.28-5.78-14.28-5.78,0,1.1-1.1,4.46,0,5.49,2.37,2.24,8.16,3.17,9.31,3.49,16.22,4.51,32.72,5.63,49.35,4.53,10.09-.67,20.21-1.37,30-4.69,2.54-.86,7.7-3,9.37-6.62C1027,271.1,1026.78,271.35,1027,270Z" transform="translate(-53.8 -216.44)"/><path class="cls-7" d="M934.74,230.94c-1.2,1-3.58.93-3.41,3,.14,1.84,2,2.46,3.54,3.14a47.71,47.71,0,0,0,12.46,3.31c22.7,3.42,45.34,3.48,67.83-1.53,3.46-.77,11.87-2.87,8.78-5.08C1002.5,218.5,942.5,224.5,934.74,230.94Z" transform="translate(-53.8 -216.44)"/><path class="cls-1" d="M951,224s.5,5.5.5,10.5c2,3,33.76,8.94,55.13.22L1007,224S980,209,951,224Z" transform="translate(-53.8 -216.44)"/><path class="cls-1" d="M951.4,224.93c6.25,1.9,32.78,9,55.15.07a.69.69,0,0,0,.12-1.24c-4.88-3-25.5-13.76-55.34.13A.55.55,0,0,0,951.4,224.93Z" transform="translate(-53.8 -216.44)"/><path class="cls-7" d="M1010.5,237.5s11-4,1-7" transform="translate(-53.8 -216.44)"/><path class="cls-7" d="M949,237s-14.81-4-1.35-7" transform="translate(-53.8 -216.44)"/></svg>
