<?xml version="1.0" standalone="no"?>
<!DOCTYPE svg PUBLIC "-//W3C//DTD SVG 20010904//EN"
        "http://www.w3.org/TR/2001/REC-SVG-20010904/DTD/svg10.dtd">
<svg version="1.0" xmlns="http://www.w3.org/2000/svg" viewBox="0 0 299.000000 520.000000"
     preserveAspectRatio="xMidYMid meet">
    <metadata>
        Created by potrace 1.16, written by Peter Selinger 2001-2019
    </metadata>
    <g transform="translate(0.000000,520.000000) scale(0.100000,-0.100000)"
       fill="currentColor" stroke="none">
        <path d="M1464 4843 c16 -329 -15 -630 -84 -809 -37 -97 -117 -241 -178 -321
-26 -34 -87 -115 -136 -178 -216 -284 -338 -539 -368 -773 -39 -303 120 -650
362 -792 225 -132 580 -140 812 -19 80 42 193 155 234 234 122 232 135 591 30
829 -79 178 -219 275 -424 292 -234 19 -460 -145 -502 -365 -25 -131 -3 -246
63 -330 50 -65 108 -98 198 -113 62 -11 159 -4 159 11 0 4 -25 19 -55 34 -67
32 -137 95 -159 141 -34 72 -9 216 51 286 63 75 181 107 284 76 212 -62 296
-326 188 -594 -79 -199 -209 -292 -429 -308 -137 -10 -280 35 -387 123 -189
153 -209 482 -48 808 52 105 97 177 248 389 130 183 217 384 252 580 18 104
20 363 5 517 -21 201 -83 455 -115 466 -7 2 -7 -60 -1 -184z"/>
        <path d="M2384 2737 c-1 -266 -36 -406 -157 -627 -69 -125 -147 -202 -335
-328 -190 -129 -275 -197 -382 -308 -141 -147 -191 -235 -237 -422 -23 -90
-27 -129 -27 -247 1 -205 35 -312 145 -458 62 -82 153 -179 145 -155 -3 9 -22
83 -43 165 -36 143 -37 154 -37 318 0 183 13 261 59 362 69 152 229 317 508
527 272 205 378 370 434 676 23 127 23 376 -1 480 -20 91 -55 200 -64 200 -4
0 -7 -82 -8 -183z"/>
    </g>
</svg>
